<svg width="734" height="220" viewBox="0 0 734 220" fill="none" xmlns="http://www.w3.org/2000/svg">
<path fill-rule="evenodd" clip-rule="evenodd" d="M388.442 78.9365C393.246 78.9365 396.492 81.4358 398.18 86.4346L417.948 145.738L438.397 84.5844C438.917 82.8965 439.955 81.5332 441.513 80.4945C443.072 79.4558 445.084 78.9365 447.551 78.9365C448.979 78.9365 450.31 79.1962 451.543 79.7155C452.777 80.2349 453.848 80.9652 454.757 81.9065C455.666 82.8478 456.396 83.9352 456.948 85.1687C457.5 86.4021 457.776 87.7005 457.776 89.0638C457.776 90.2973 457.516 91.5956 456.997 92.9589L427.491 181.475C426.907 183.358 425.836 184.916 424.278 186.15C422.72 187.383 420.61 188 417.948 188C415.676 188 413.663 187.351 411.911 186.052C410.158 184.754 409.022 183.228 408.502 181.475L388.442 121.296L368.383 181.475C367.798 183.358 366.63 184.916 364.877 186.15C363.124 187.383 361.112 188 358.84 188C356.567 188 354.571 187.383 352.851 186.15C351.13 184.916 349.946 183.358 349.296 181.475L319.791 92.9589C319.336 91.5307 319.109 90.2323 319.109 89.0638C319.109 87.7005 319.369 86.4021 319.888 85.1687C320.408 83.9352 321.122 82.8478 322.031 81.9065C322.939 80.9652 324.011 80.2349 325.244 79.7155C326.478 79.1962 327.808 78.9365 329.237 78.9365C331.574 78.9365 333.537 79.4883 335.128 80.5919C336.718 81.6955 337.806 83.0264 338.39 84.5844L358.84 145.64L378.607 86.4346C380.295 81.4358 383.574 78.9365 388.442 78.9365ZM558.757 123.341C557.653 119.77 556.014 116.508 553.839 113.554C551.665 110.601 549.133 108.069 546.244 105.959C543.355 103.849 540.174 102.21 536.701 101.041C533.228 99.8728 529.641 99.2886 525.941 99.2886C522.24 99.2886 518.637 99.8728 515.132 101.041C511.626 102.21 508.413 103.849 505.491 105.959C502.57 108.069 500.038 110.601 497.896 113.554C495.753 116.508 494.163 119.77 493.124 123.341H558.757ZM554.375 157.326C557.296 157.326 559.714 158.283 561.63 160.198C563.545 162.114 564.502 164.532 564.502 167.453C564.502 170.309 563.528 172.744 561.581 174.756C551.518 183.585 539.638 188 525.94 188C510.879 188 498.025 182.677 487.379 172.03C476.732 161.383 471.409 148.529 471.409 133.468C471.409 118.407 476.732 105.553 487.379 94.9065C498.025 84.2598 510.879 78.9365 525.94 78.9365C540.872 78.9365 553.726 84.2598 564.502 94.9065C569.826 100.165 573.818 106.024 576.48 112.483C579.141 118.943 580.472 125.938 580.472 133.468C580.472 136.39 579.482 138.808 577.502 140.723C575.522 142.638 573.104 143.595 570.248 143.595H493.124C494.228 147.166 495.851 150.428 497.993 153.382C500.135 156.336 502.651 158.868 505.54 160.977C508.429 163.087 511.61 164.726 515.083 165.895C518.556 167.064 522.175 167.648 525.94 167.648C530.225 167.648 534.153 166.999 537.723 165.7C541.294 164.402 544.605 162.454 547.656 159.858C549.603 158.235 551.843 157.391 554.375 157.326ZM647.468 167.648C652.207 167.648 656.654 166.739 660.809 164.921C664.964 163.104 668.583 160.637 671.667 157.521C674.75 154.405 677.185 150.785 678.97 146.663C680.755 142.541 681.648 138.142 681.648 133.468C681.648 128.794 680.755 124.396 678.97 120.274C677.185 116.151 674.75 112.532 671.667 109.416C668.583 106.3 664.964 103.833 660.809 102.015C656.654 100.197 652.207 99.2886 647.468 99.2886C642.664 99.2886 638.185 100.197 634.03 102.015C629.875 103.833 626.272 106.284 623.221 109.367C620.17 112.451 617.752 116.07 615.967 120.225C614.181 124.38 613.289 128.794 613.289 133.468C613.289 138.142 614.181 142.557 615.967 146.712C617.752 150.866 620.17 154.486 623.221 157.569C626.272 160.653 629.875 163.104 634.03 164.921C638.185 166.739 642.664 167.648 647.468 167.648ZM613.289 91.0115C622.962 82.9615 634.355 78.9366 647.468 78.9366C662.4 78.9366 675.253 84.2599 686.03 94.9066C691.353 100.165 695.346 106.024 698.007 112.483C700.669 118.943 702 125.938 702 133.468C702 148.659 696.677 161.513 686.03 172.03C675.253 182.677 662.4 188 647.468 188C632.407 188 619.553 182.677 608.907 172.03C598.26 161.383 592.937 148.53 592.937 133.468V42.3225C592.937 39.4011 593.894 36.983 595.809 35.0678C597.724 33.1527 600.143 32.1952 603.064 32.1952C605.92 32.1952 608.339 33.1527 610.319 35.0678C612.299 36.983 613.289 39.4011 613.289 42.3225V91.0115Z" fill="url(#paint0_linear_2410_320)"/>
<path d="M153.722 33.7528C152.554 34.9213 151.97 36.3495 151.97 38.0374V181.962C151.97 183.65 152.554 185.078 153.722 186.247C154.891 187.415 156.319 188 158.007 188C159.695 188 161.123 187.415 162.292 186.247C163.46 185.078 164.045 183.65 164.045 181.962V129.475C164.045 118.829 167.777 109.805 175.243 102.404C182.839 94.8088 191.895 91.0111 202.412 91.0111C212.928 91.0111 221.952 94.8088 229.483 102.404C237.013 109.74 240.779 118.764 240.779 129.475V181.962C240.779 183.65 241.363 185.078 242.531 186.247C243.7 187.415 245.128 188 246.816 188C248.504 188 249.948 187.415 251.149 186.247C252.35 185.078 252.951 183.65 252.951 181.962V129.475C252.951 115.518 247.985 103.605 238.052 93.7377C228.314 83.87 216.434 78.9362 202.412 78.9362C188.779 78.9362 175.99 84.7139 164.045 96.2695V38.0374C164.045 36.3495 163.46 34.9213 162.292 33.7528C161.123 32.5843 159.695 32 158.007 32C156.319 32 154.891 32.5843 153.722 33.7528Z" fill="#050D1F"/>
<path d="M82.4419 188C84.2596 188 85.6553 187.513 86.6291 186.539C87.0835 186.084 87.4406 185.565 87.7003 184.981L132.494 87.3107C132.819 86.5966 132.981 85.8176 132.981 84.9736C132.981 83.2208 132.381 81.7764 131.18 80.6403C129.979 79.5042 128.534 78.9362 126.846 78.9362C125.158 78.9362 123.698 79.5205 122.464 80.689C122.01 81.1434 121.653 81.6303 121.393 82.1497L82.4419 167.355L43.4906 82.1497C43.166 81.5005 42.809 80.9811 42.4195 80.5916C41.186 79.488 39.7253 78.9362 38.0374 78.9362C36.3495 78.9362 34.9213 79.5205 33.7528 80.689C32.5843 81.8575 32 83.2857 32 84.9736C32 85.8825 32.1298 86.6615 32.3895 87.3107L77.1834 184.981C77.3782 185.435 77.7028 185.89 78.1572 186.344C79.2608 187.448 80.689 188 82.4419 188Z" fill="#050D1F"/>
<path d="M294.726 52.6441C294.726 54.9163 293.947 56.8314 292.389 58.3894C290.831 59.9475 288.916 60.7265 286.644 60.7265C284.436 60.7265 282.537 59.9475 280.947 58.3894C279.356 56.8314 278.561 54.9163 278.561 52.6441C278.561 50.4369 279.356 48.538 280.947 46.9475C282.537 45.357 284.436 44.5618 286.644 44.5618C288.916 44.5618 290.831 45.357 292.389 46.9475C293.947 48.538 294.726 50.4369 294.726 52.6441Z" fill="#050D1F"/>
<path d="M282.359 80.689C281.191 81.8575 280.606 83.2857 280.606 84.9736V181.962C280.606 183.65 281.191 185.078 282.359 186.247C283.528 187.415 284.956 188 286.644 188C288.332 188 289.776 187.415 290.977 186.247C292.178 185.078 292.779 183.65 292.779 181.962V84.9736C292.779 83.2857 292.178 81.8575 290.977 80.689C289.776 79.5205 288.332 78.9362 286.644 78.9362C284.956 78.9362 283.528 79.5205 282.359 80.689Z" fill="#050D1F"/>
<defs>
<linearGradient id="paint0_linear_2410_320" x1="319.491" y1="110" x2="702" y2="110" gradientUnits="userSpaceOnUse">
<stop stop-color="#EC733F"/>
<stop offset="1" stop-color="#F7930A"/>
</linearGradient>
</defs>
</svg>
